<svg width="1000" height="667" viewBox="0 0 1000 667" fill="none" xmlns="http://www.w3.org/2000/svg">
<path d="M831.25 378.725C831.422 403.031 829.79 425.315 826.763 445.025C826.549 446.507 826.313 447.988 826.055 449.425C824.466 459.024 822.534 467.976 820.343 476.243C819.957 477.66 819.57 479.055 819.183 480.429C810.769 509.844 798.809 529.725 786.055 537.068H250.31C250.31 537.068 204.643 497.476 195.475 440.924C195.239 439.485 195.025 438.047 194.854 436.587C191.289 408.44 197.022 376.385 221.691 343.041C232.942 327.863 247.734 317.299 264.718 310.021C266.049 309.463 267.358 308.925 268.711 308.411C293.895 298.556 323.481 295.464 353.195 294.992C354.698 294.971 356.202 294.948 357.705 294.948C375.395 294.82 393.045 295.549 409.77 296.216C411.359 296.301 412.926 296.365 414.493 296.429C441.502 297.568 465.85 298.405 483.519 295.164H483.541C485.173 294.863 486.719 294.519 488.222 294.133H488.243C507.802 289.345 517.443 278.245 510.507 254.369C497.067 208.059 510.83 174.115 540.779 155.371C542.305 154.405 543.893 153.481 545.503 152.601C562.445 143.412 583.85 138.603 608.067 138.668C609.765 138.668 611.482 138.711 613.222 138.753C633.811 139.376 656.29 143.433 679.627 151.184C692.187 155.349 703.889 160.503 714.731 166.449C716.062 167.18 717.394 167.931 718.682 168.704C739.938 180.985 757.823 196.487 772.637 214.005C773.646 215.165 774.611 216.347 775.578 217.549C814.074 264.997 830.863 326.252 831.25 378.725Z" fill="#E4EBF7"/>
<path d="M820.344 476.242C819.957 477.66 819.57 479.054 819.184 480.43C811.261 477.596 802.93 473.966 794.408 469.35C755.117 448.009 705.092 400.474 689.933 295.1C683.406 249.668 691.737 206.406 714.732 166.45C716.062 167.18 717.394 167.932 718.682 168.704C698.5 203.744 687.164 245.632 694.185 294.477C709.085 397.985 757.909 444.596 796.254 465.465C804.498 469.952 812.614 473.494 820.344 476.242Z" fill="white"/>
<path d="M826.763 445.025C826.548 446.506 826.312 447.989 826.055 449.426C801.235 437.769 769.954 412.412 755.352 357.362C741.247 304.053 746.872 256.732 772.636 214.006C773.646 215.165 774.612 216.346 775.578 217.549C751.08 258.944 745.863 304.74 759.518 356.268C773.474 408.934 803.039 433.54 826.763 445.025Z" fill="white"/>
<path d="M592.503 228.648C594.585 298.598 586.62 343.792 566.673 375.226C545.783 408.16 510.937 428.064 453.676 439.764C443.005 441.954 432.464 443.05 422.115 443.05C389.888 443.05 359.529 432.551 332.928 412.026C301.989 388.128 278.308 352.144 264.717 310.02C266.048 309.462 267.359 308.926 268.711 308.41C282.023 349.827 305.231 385.21 335.569 408.632C369.664 434.976 410.221 444.274 452.817 435.578C559.308 413.787 592.201 363.524 588.208 228.778C587.071 190.518 593.748 160.331 608.068 138.667C609.764 138.667 611.481 138.71 613.221 138.754C598.32 159.794 591.364 189.938 592.503 228.648Z" fill="white"/>
<path d="M459.623 373.401C455.2 374.131 450.627 374.517 445.968 374.517C411.638 374.517 372.326 353.712 353.196 294.992C354.699 294.971 356.202 294.949 357.704 294.949C378.788 357.984 423.983 374.904 458.915 369.171C506.107 361.441 551.495 312.855 542.712 238.032C538.934 205.933 538.763 178.537 540.78 155.372C542.304 154.405 543.894 153.483 545.504 152.601C543.164 176.197 543.078 204.323 546.986 237.537C556.067 315.003 508.747 365.349 459.623 373.401Z" fill="white"/>
<path d="M488.221 294.133C486.568 301.669 483.669 309.356 478.711 315.818C472.119 324.449 462.865 329.558 451.207 330.997C449.811 331.169 448.437 331.254 447.084 331.254C439.849 331.254 433.215 328.786 427.332 323.848C419.56 317.321 413.892 307.188 409.769 296.216C411.359 296.301 412.925 296.366 414.493 296.43C418.315 306.134 423.381 314.916 430.101 320.562C436.113 325.608 443.048 327.69 450.671 326.746C461.148 325.458 469.413 320.906 475.297 313.241C479.376 307.917 481.952 301.54 483.52 295.164H483.541C485.172 294.862 486.719 294.52 488.221 294.133Z" fill="white"/>
<path d="M321.506 537.068H316.826C297.566 492.968 269.806 463.576 234.209 449.641C221.283 444.575 208.165 441.933 195.477 440.925C195.239 439.485 195.025 438.047 194.854 436.588C208.229 437.553 222.099 440.303 235.775 445.648C272.941 460.205 301.754 490.907 321.506 537.068Z" fill="white"/>
<path d="M228.573 404.16L215.305 417.838L209.765 409.699L207.918 406.972C202.014 408.455 193.297 396.904 189.798 390.743C186.32 384.559 200.276 375.026 200.276 375.026C198 368.198 188.853 363.904 188.596 362.015C188.338 360.147 190.614 358.13 198.922 362.015C207.253 365.922 214.489 379.728 214.489 379.728C215.97 375.712 209.401 364.85 210.602 363.626C211.805 362.422 218.246 363.904 223.206 374.359C228.186 384.838 225.224 397.183 225.224 397.183L225.289 397.291L228.573 404.16Z" fill="#98B2D8"/>
<path d="M199.783 373.823C199.783 373.823 209.643 385.1 208.579 389.528C207.517 393.958 202.551 388.818 202.551 388.818C202.551 388.818 207.114 394.091 205.638 395.836C204.162 397.579 198.659 393.151 198.659 393.151C198.659 393.151 205.235 401.338 198.659 400.128C192.085 398.922 183.826 386.52 190.17 385.274C190.17 385.274 189.401 376.243 195.171 379.331C195.171 379.331 192.587 371.804 199.783 373.823" fill="#B1C3E8"/>
<path d="M319.578 537.147C319.578 537.147 330.678 504.727 324.838 472.758C324.838 472.758 324.817 472.693 324.795 472.543C324.795 472.479 324.773 472.393 324.751 472.286C324.581 471.449 324.409 470.611 324.237 469.774C324.237 469.774 317.797 475.398 308.907 480.981C298.237 487.701 284.002 494.378 273.074 491.243C253.021 485.51 223.691 446.521 210.079 415.733C210.079 415.733 216.886 405.534 230.477 402.399C230.477 402.399 257.679 438.642 281.662 447.23C281.662 447.23 294.543 431.837 304.549 409.291C310.947 394.906 320.545 385.803 332.653 380.909C339.523 378.095 347.21 376.658 355.562 376.399L376.581 366.587C376.581 366.587 379.995 366.61 385.298 367.295C395.153 368.585 411.534 372.191 424.782 382.283C445.178 397.827 474.527 537.147 474.527 537.147H319.578Z" fill="#B7CAE5"/>
<path d="M324.795 472.543C324.624 471.62 324.431 470.696 324.238 469.774C324.238 469.774 317.796 475.399 308.907 480.98L315.112 427.906C321.424 452.211 324.452 470.375 324.795 472.543Z" fill="#97B3D1"/>
<path d="M385.298 367.296C382.055 387.908 361.423 406.952 346.522 406.694C334.542 406.48 332.782 389.304 332.653 380.909C339.523 378.096 347.21 376.657 355.562 376.4L376.581 366.588C376.581 366.588 379.994 366.609 385.298 367.296" fill="#CED9EA"/>
<path d="M349.631 516.081C349.631 516.081 396.967 466.822 399.024 415.025L412.98 458.681L407.612 504.131L349.631 516.081Z" fill="#97B3D1"/>
<path d="M348.257 537.135H295.253C295.253 537.135 295.387 529.889 303.573 527.474C311.757 525.058 316.991 514.861 341.547 516.203L348.257 537.135Z" fill="#98B2D8"/>
<path d="M402.486 488.423C402.486 488.423 377.514 502.785 338.192 512.982C338.192 512.982 332.735 526.133 342.308 537.135H418.384L402.486 488.423Z" fill="#B6C5DD"/>
<path d="M309.503 337.879C309.503 337.879 298.199 322.276 299.589 311.771C300.979 301.267 310.704 303.734 310.704 303.734C310.704 303.734 310.252 278.207 333.881 284.734C333.881 284.734 333.361 276.939 338.521 277.142C343.68 277.343 351.772 289.212 351.772 289.212C351.772 289.212 353.78 280.419 357.275 282.494C360.769 284.57 361.847 293.644 369.145 298.012C376.444 302.379 380.959 308.034 375.228 325.744C369.499 343.456 373.797 344.71 371.751 353.803C369.808 362.44 368.253 367.692 362.893 368.179C357.533 368.664 337.013 347.016 337.013 347.016L309.503 337.879Z" fill="#5D7CA0"/>
<path d="M376.581 366.587C376.581 366.587 363.42 398.514 349.593 396.11C342.723 394.906 341.199 390.721 341.135 385.869C341.069 379.534 343.539 372.106 339.803 368.993L356.377 345.441L360.028 340.243C360.028 340.243 364.493 353.17 376.581 366.587" fill="#98B2D8"/>
<path d="M341.134 385.869C341.07 379.534 343.538 372.106 339.802 368.993L356.378 345.441C357.795 347.093 358.803 350.034 359.211 354.65C361.402 378.975 348.541 384.622 341.134 385.869Z" fill="#799CBF"/>
<path d="M307.893 325.466C307.893 325.466 312.373 366.591 329.155 375.848C343.739 383.894 361.451 359.56 361.097 347.523C361.097 347.523 367.453 342.67 366.393 334.811C365.333 326.954 357.022 329.559 356.027 342.223C356.027 342.223 349.271 341.742 348.022 325.912C343.781 329.424 339.203 328.343 334.394 324.071C334.394 324.071 332.009 332.88 319.73 322.584C319.73 322.584 315.098 328.875 307.893 325.466Z" fill="#98B2D8"/>
<path d="M703.723 484.802C703.723 484.802 725.383 520.944 732.885 538.478H656.505C656.505 538.478 652.153 517.352 644.5 497.052L703.723 484.802Z" fill="#5D7CA0"/>
<path d="M673.932 492.854C669.752 506.705 663.379 518.532 653.923 527.513L656.506 538.478L564.075 537.337L574.364 474.068L673.932 492.854Z" fill="#799CBF"/>
<path d="M818.927 295.615C818.927 295.615 821.987 276.452 828.07 269.653C834.154 262.855 850.792 252.797 852.76 256.376C854.73 259.953 838.09 271.175 838.09 271.175C838.09 271.175 845.604 269.385 852.046 280.477C858.486 291.571 837.732 300.159 837.732 300.159L833.616 309.463L817.156 299.085L818.927 295.615Z" fill="#799CBF"/>
<path d="M840.212 271.537C840.212 271.537 830.938 280.968 832.295 283.664C833.65 286.358 838.762 282.122 838.762 282.122C838.762 282.122 834.588 288.476 837.823 290.112C841.058 291.748 846.066 286.261 846.066 286.261C846.066 286.261 841.892 292.037 844.292 293.096C846.691 294.154 859.523 285.108 857.228 282.99C854.934 280.872 853.682 282.604 853.682 282.604C853.682 282.604 856.367 278.081 853.682 276.637C850.758 275.065 849.299 277.888 849.299 277.888C849.299 277.888 851.491 274.424 849.718 273.076C847.943 271.729 844.187 273.461 844.187 273.461C844.187 273.461 845.419 267.688 840.212 271.537" fill="#98B2D8"/>
<path d="M831.604 271.309C828.785 270.503 823.06 276.363 823.06 276.363C820.808 279.259 820.348 285.033 820.257 287.695C819.968 295.13 817.156 299.086 817.156 299.086L825.509 304.351C831.977 296.019 829.861 285.346 828.817 281.571C831.969 276.861 833.285 271.789 831.604 271.309Z" fill="#98B2D8"/>
<path d="M837.009 311.431C837.009 311.431 809.097 385.76 764.74 392.351C744.902 395.292 729.916 395.594 719.438 395.035C706.942 394.392 700.802 392.503 700.352 392.374C700.329 392.374 700.329 392.351 700.329 392.351C700.329 392.351 688.156 415.024 696.036 447.595C703.893 480.143 706.77 486.95 706.77 486.95C706.77 486.95 646.977 530.92 598.346 490.879L554.461 422.646L540.72 401.262C540.72 401.262 553.345 359.803 588.942 332.858L588.964 332.836C602.382 322.659 619.088 314.544 639.592 311.539C650.11 309.95 661.618 309.714 674.201 311.216C674.201 311.216 683.862 313.943 699.578 319.696C708.037 322.788 718.258 326.76 729.657 331.655C762.228 345.611 771.181 349.776 771.181 349.776C771.181 349.776 805.877 315.554 814.83 294.792C814.83 294.792 832.714 296.595 837.009 311.431" fill="#B7CAE5"/>
<path d="M613.079 345.369C612.918 362.027 609.358 378.167 607.79 390.703L635.371 385.121L678.287 427.551C678.287 427.551 683.725 439.983 672.657 442.13C663.982 443.813 623.449 449.451 623.449 449.451C614.107 462.165 609.886 481.614 605.227 500.486L564.075 428.981L613.079 345.369Z" fill="#97B3D1"/>
<path d="M674.201 349.369C654.985 344.495 644.873 327.211 639.591 311.538C650.111 309.95 661.618 309.714 674.201 311.217C674.201 311.217 683.862 313.943 699.578 319.697C701.425 333.417 700.759 356.089 674.201 349.369Z" fill="#CED9EA"/>
<path d="M724.655 364.569C724.655 364.569 720.534 380.715 719.439 395.036C706.943 394.392 700.802 392.503 700.351 392.375C700.33 392.375 700.33 392.352 700.33 392.352C700.33 392.352 711.238 373.695 724.655 364.569" fill="#97B3D1"/>
<path d="M676.693 434.624L628.765 441.581C627.346 441.786 626.03 440.804 625.825 439.385L615.235 366.434C615.03 365.017 616.013 363.702 617.431 363.496L665.361 356.54C666.778 356.333 668.095 357.317 668.301 358.734L678.887 431.684C679.094 433.101 678.11 434.418 676.693 434.624Z" fill="#F2F4F9"/>
<path d="M641.816 388.186L649.152 385.325C649.152 385.325 656.13 366.001 664.807 378.166C664.807 378.166 670.8 374.589 670.622 372.621C670.443 370.653 670.354 367.79 670.354 367.79C670.354 367.79 682.499 370.414 679.782 387.352C677.064 404.289 666.686 402.142 656.488 402.322L643.786 407.33L641.816 388.186Z" fill="#98B2D8"/>
<path d="M646.547 411.803C646.547 411.803 589.394 449.634 564.703 431.385C560.946 428.594 557.531 425.653 554.462 422.646L540.72 401.262C540.72 401.262 553.346 359.803 588.943 332.858L588.963 332.837C600.763 327.535 613.092 329.466 613.727 340.397C615.236 366.435 592.966 382.446 590.21 394.263L641.438 383.893C641.438 383.893 649.767 392.738 646.547 411.803" fill="#C1CFE5"/>
<path d="M713.731 271.598C713.731 271.598 721.899 254.148 718.557 244.092C715.217 234.035 706.131 238.287 706.131 238.287C706.131 238.287 701.775 213.13 679.795 223.984C679.795 223.984 678.839 216.231 673.809 217.4C668.779 218.568 663.064 231.746 663.064 231.746C663.064 231.746 659.439 223.487 656.397 226.183C653.355 228.878 654.003 237.994 647.655 243.656C641.309 249.319 637.936 255.72 646.895 272.038C655.853 288.355 651.868 290.396 655.588 298.942C659.12 307.059 661.633 311.927 666.988 311.396C672.345 310.864 688.427 285.744 688.427 285.744L713.731 271.598Z" fill="#5D7CA0"/>
<path d="M653.246 312.407C653.246 312.407 665.882 343.547 685.741 338.448C692.495 336.712 692.535 329.456 691.686 324.679C690.558 318.446 686.737 311.614 689.821 307.854L669.113 287.838L664.551 283.42C664.551 283.42 662.595 296.955 653.246 312.407Z" fill="#98B2D8"/>
<path d="M691.686 324.679C690.558 318.445 686.737 311.613 689.821 307.853L669.113 287.837C668.031 289.728 667.594 292.807 668.061 297.417C670.485 321.72 684.177 324.848 691.686 324.679Z" fill="#799CBF"/>
<path d="M712.978 259.103C712.978 259.103 716.31 300.338 701.567 312.584C688.757 323.228 666.783 302.659 664.871 290.771C664.871 290.771 657.715 287.199 657.279 279.282C656.842 271.364 665.494 272.362 668.852 284.612C668.852 284.612 675.397 282.868 673.649 267.088C678.475 269.739 682.766 267.816 686.686 262.715C686.686 262.715 690.686 270.919 700.808 258.499C700.808 258.499 706.542 263.806 712.978 259.103" fill="#98B2D8"/>
<path d="M461.581 389.109C449.107 393.94 435.109 403.193 421.561 420.757C395.088 455.109 380.768 505.2 383.645 520.595C383.795 521.388 383.967 522.14 384.203 522.848C388.261 536.095 405.265 537.147 447.689 537.147H550.211C550.211 537.147 595.127 540.259 605.496 521.303C606.633 519.219 607.515 516.9 608.137 514.368V514.344C613.268 493.777 601.975 459.361 579.024 430.053C560.257 406.071 547.741 392.545 523.824 386.941C514.913 384.86 504.413 383.893 491.404 383.893C484.017 383.893 473.497 384.493 461.581 389.109" fill="url(#paint0_linear)"/>
<g opacity="0.220001">
<g opacity="0.220001">
<path opacity="0.220001" d="M427.829 502.182C438.955 484.686 442.452 460.413 445.544 435.778L455.205 485.877H538.939L554.325 435.778C553.963 459.193 557.175 482.156 568.281 504.125C568.281 504.125 513.529 566.082 427.829 502.182Z" fill="#1F395E"/>
</g>
</g>
<path d="M397.493 498.221C384.804 501.484 381.991 512.436 384.203 522.848C388.261 536.095 405.265 537.147 447.689 537.147H453.251L451.985 513.251C451.985 513.251 424.729 497.389 404.697 497.391C402.157 497.391 399.731 497.647 397.493 498.221" fill="url(#paint1_linear)"/>
<path d="M523.652 511.383L519.787 537.147H550.211C550.211 537.147 595.127 540.259 605.496 521.303C606.633 519.219 607.515 516.9 608.137 514.368C608.159 514.344 608.137 514.344 608.137 514.344C609.255 505.908 606.355 498.007 596.908 494.207C594.299 493.155 591.06 492.699 587.408 492.699C564.007 492.7 523.652 511.383 523.652 511.383" fill="url(#paint2_linear)"/>
<path d="M523.824 386.942C522.922 398.986 517.94 420.928 493.68 420.928C468.108 420.928 462.698 399.308 461.582 389.11C473.498 384.494 484.018 383.894 491.404 383.894C504.414 383.894 514.914 384.859 523.824 386.942Z" fill="#1F395E"/>
<path d="M545.917 537.135H447.69C445.319 537.135 443.397 535.214 443.397 532.842C443.397 530.47 445.319 528.549 447.69 528.549H545.917C548.287 528.549 550.211 530.47 550.211 532.842C550.211 535.214 548.287 537.135 545.917 537.135Z" fill="white"/>
<path d="M442.303 457.148C439.081 457.148 436.591 460.047 437.084 463.247L447.153 528.559H547.269L557.445 465.543V465.523L557.812 463.289C558.327 460.068 555.857 457.148 552.593 457.148H442.303Z" fill="url(#paint3_linear)"/>
<path d="M557.445 465.543L547.269 528.559H447.691L481.441 525.038C516.093 521.452 545.616 498.307 557.445 465.543Z" fill="#3150BC"/>
<path d="M493.271 411.803H492.606C488.742 411.803 485.542 411.009 482.945 409.85C476.633 407.015 472.81 400.425 472.961 393.511C472.982 392.802 472.982 392.115 472.982 391.429C473.003 385.697 472.638 380.93 472.638 380.93V378.353L508.709 376.743C508.837 381.939 509.438 386.554 510.147 390.247C510.167 390.313 510.167 390.355 510.19 390.419C512.251 401.262 504.307 411.525 493.271 411.803Z" fill="#FEB19E"/>
<path d="M510.147 390.247C495.118 407.895 479.68 397.591 472.982 391.429C473.004 385.697 472.639 380.93 472.639 380.93V378.353L508.708 376.743C508.838 381.939 509.439 386.554 510.147 390.247Z" fill="#FF856A"/>
<path d="M461.601 360.82C461.601 360.82 472.784 392.347 491.436 392.347C510.089 392.347 517.842 358.399 517.842 358.399V328.876H460.17L461.601 360.82Z" fill="#FEB19E"/>
<path d="M455.599 343.034C455.599 343.034 450.106 344.039 451.044 350.345C451.984 356.653 457.71 364.301 462.362 360.277L455.599 343.034Z" fill="#FEB19E"/>
<path d="M522.198 340.397C522.198 340.397 527.777 340.645 527.703 347.021C527.631 353.397 522.999 361.755 517.842 358.399L522.198 340.397Z" fill="#FEB19E"/>
<path d="M469.517 293.181C455.741 297.833 458.068 310.536 458.068 310.536C458.068 310.536 451.805 306.959 447.153 316.261C442.503 325.565 452.383 344.892 452.383 344.892C453.636 343.104 455.599 343.033 455.599 343.033C460.171 356.187 461.6 360.82 461.6 360.82C465.537 355.185 464.152 343.457 464.152 343.457C472.392 346.855 479.656 346.327 485.8 341.309C495.015 347.661 496.445 338.716 496.445 338.716C502.439 347.751 511.992 345.877 511.992 345.877C513.424 357.508 517.843 358.399 517.843 358.399C520.257 351.421 522.197 340.397 522.197 340.397C525.037 340.665 525.708 341.859 525.708 341.859C535.908 313.053 518.721 312.505 518.721 312.505C512.28 286.92 488.484 289.424 488.484 289.424C488.484 289.424 487.589 284.772 485.441 283.52C485.253 283.409 485.08 283.357 484.913 283.357C483.188 283.357 482.081 288.94 469.517 293.181" fill="url(#paint4_linear)"/>
<g opacity="0.600006">
<g opacity="0.600006">
<path opacity="0.600006" d="M430.258 367.193H340.338C337.413 367.193 335.042 369.563 335.042 372.489V426.158C335.042 429.083 337.413 431.454 340.338 431.454H402.365L418.541 445.793C419.763 446.877 421.63 445.629 421.095 444.085L416.723 431.454H430.258C433.183 431.454 435.555 429.083 435.555 426.158V372.489C435.555 369.563 433.183 367.193 430.258 367.193Z" fill="#9ABCED"/>
</g>
</g>
<path d="M368.232 381.551H347.518C346.738 381.551 346.106 380.919 346.106 380.139C346.106 379.358 346.738 378.727 347.518 378.727H368.232C369.012 378.727 369.644 379.358 369.644 380.139C369.644 380.919 369.012 381.551 368.232 381.551Z" fill="#9ABCED"/>
<path d="M419.313 393.792H359.287C358.507 393.792 357.875 393.159 357.875 392.379C357.875 391.599 358.507 390.967 359.287 390.967H419.313C420.093 390.967 420.725 391.599 420.725 392.379C420.725 393.159 420.093 393.792 419.313 393.792Z" fill="#9ABCED"/>
<path d="M419.312 402.501H347.518C346.738 402.501 346.106 401.868 346.106 401.088C346.106 400.308 346.738 399.676 347.518 399.676H419.312C420.092 399.676 420.724 400.308 420.724 401.088C420.724 401.868 420.092 402.501 419.312 402.501Z" fill="#9ABCED"/>
<path d="M419.312 411.211H347.518C346.738 411.211 346.106 410.578 346.106 409.798C346.106 409.018 346.738 408.386 347.518 408.386H419.312C420.092 408.386 420.724 409.018 420.724 409.798C420.724 410.578 420.092 411.211 419.312 411.211Z" fill="#9ABCED"/>
<path d="M419.312 419.921H347.518C346.738 419.921 346.106 419.287 346.106 418.507C346.106 417.727 346.738 417.095 347.518 417.095H419.312C420.092 417.095 420.724 417.727 420.724 418.507C420.724 419.287 420.092 419.921 419.312 419.921Z" fill="#9ABCED"/>
<path d="M828.914 551.091H176.222C174.935 551.091 173.891 550.049 173.891 548.762V539.465C173.891 538.178 174.935 537.135 176.222 537.135H828.914C830.201 537.135 831.243 538.178 831.243 539.465V548.762C831.243 550.049 830.201 551.091 828.914 551.091Z" fill="#C1C8D3"/>
<path d="M667.437 502.716V526.871C667.437 532.503 672.004 537.069 677.636 537.069H685.151C690.784 537.069 695.348 532.503 695.348 526.871V502.716H667.437Z" fill="url(#paint5_linear)"/>
<path d="M686.492 460.045V461.051C686.492 462.273 685.501 463.264 684.279 463.264H672.269C666.043 463.264 660.997 468.312 660.997 474.536C660.997 480.761 666.043 485.809 672.269 485.809H681.327C682.549 485.809 683.54 486.8 683.54 488.023V490.841C683.54 492.064 682.549 493.055 681.327 493.055H678.509C677.285 493.055 676.295 494.045 676.295 495.268V502.716H685.42V499.563C685.42 498.34 686.409 497.349 687.632 497.349C691.895 497.349 695.348 493.895 695.348 489.633V484.801C695.348 480.541 691.895 477.085 687.632 477.085H676.093C674.869 477.085 673.879 476.095 673.879 474.872C673.879 473.651 674.869 472.657 676.093 472.657H697.228C704.193 472.657 709.841 467.011 709.841 460.045C709.841 453.596 704.615 448.369 698.167 448.369C691.72 448.369 686.492 453.596 686.492 460.045" fill="url(#paint6_linear)"/>
<g opacity="0.600006">
<g opacity="0.600006">
<path opacity="0.600006" d="M656.203 463.198H582.936C580.12 463.198 577.838 460.915 577.838 458.099V365.509C577.838 362.693 580.12 360.41 582.936 360.41H656.203C659.019 360.41 661.303 362.693 661.303 365.509V458.099C661.303 460.915 659.019 463.198 656.203 463.198Z" fill="#9ABCED"/>
</g>
</g>
<path d="M587.589 357.01C585.369 357.01 583.563 358.816 583.563 361.037V453.626C583.563 455.846 585.369 457.652 587.589 457.652H660.855C663.077 457.652 664.882 455.846 664.882 453.626V361.037C664.882 358.816 663.077 357.01 660.855 357.01H587.589ZM660.855 459.8H587.589C584.186 459.8 581.417 457.03 581.417 453.626V361.037C581.417 357.634 584.186 354.864 587.589 354.864H660.855C664.259 354.864 667.029 357.634 667.029 361.037V453.626C667.029 457.03 664.259 459.8 660.855 459.8" fill="#4F7EB7"/>
<g opacity="0.710007">
<path opacity="0.710007" d="M592.508 391.151H604.497V375.944H592.508V391.151ZM606.644 393.299H590.36V373.798H606.644V393.299Z" fill="#7CA6D8"/>
</g>
<path d="M602.547 387.25L597.703 381.85L599.3 380.417L602.238 383.694C603.728 381.729 607.376 377.798 614.287 374.951L615.104 376.937C606.48 380.487 603.315 385.901 603.286 385.955L602.547 387.25Z" fill="#EA9BA1"/>
<path d="M648.168 381.1H622.909C622.029 381.1 621.315 380.387 621.315 379.507C621.315 378.627 622.029 377.912 622.909 377.912H648.168C649.048 377.912 649.763 378.627 649.763 379.507C649.763 380.387 649.048 381.1 648.168 381.1Z" fill="#9ABCED"/>
<path d="M648.168 388.844H622.909C622.029 388.844 621.315 388.131 621.315 387.251C621.315 386.369 622.029 385.655 622.909 385.655H648.168C649.048 385.655 649.763 386.369 649.763 387.251C649.763 388.131 649.048 388.844 648.168 388.844Z" fill="#9ABCED"/>
<g opacity="0.710007">
<path opacity="0.710007" d="M592.508 421.031H604.497V405.823H592.508V421.031ZM606.644 423.177H590.36V403.676H606.644V423.177Z" fill="#7CA6D8"/>
</g>
<path d="M602.547 417.129L597.703 411.729L599.3 410.296L602.238 413.573C603.728 411.608 607.376 407.677 614.287 404.832L615.104 406.816C606.48 410.368 603.315 415.78 603.286 415.834L602.547 417.129Z" fill="#EA9BA1"/>
<path d="M648.168 410.981H622.909C622.029 410.981 621.315 410.267 621.315 409.386C621.315 408.506 622.029 407.791 622.909 407.791H648.168C649.048 407.791 649.763 408.506 649.763 409.386C649.763 410.267 649.048 410.981 648.168 410.981Z" fill="#9ABCED"/>
<path d="M648.168 418.723H622.909C622.029 418.723 621.315 418.01 621.315 417.13C621.315 416.25 622.029 415.534 622.909 415.534H648.168C649.048 415.534 649.763 416.25 649.763 417.13C649.763 418.01 649.048 418.723 648.168 418.723Z" fill="#9ABCED"/>
<g opacity="0.710007">
<path opacity="0.710007" d="M592.508 450.911H604.497V435.704H592.508V450.911ZM606.644 453.057H590.36V433.556H606.644V453.057Z" fill="#7CA6D8"/>
</g>
<path d="M602.547 447.008L597.703 441.609L599.3 440.175L602.238 443.452C603.728 441.487 607.376 437.556 614.287 434.711L615.104 436.695C606.48 440.247 603.315 445.66 603.286 445.715L602.547 447.008Z" fill="#EA9BA1"/>
<path d="M648.168 440.859H622.909C622.029 440.859 621.315 440.146 621.315 439.266C621.315 438.385 622.029 437.67 622.909 437.67H648.168C649.048 437.67 649.763 438.385 649.763 439.266C649.763 440.146 649.048 440.859 648.168 440.859Z" fill="#9ABCED"/>
<path d="M648.168 448.603H622.909C622.029 448.603 621.315 447.888 621.315 447.008C621.315 446.128 622.029 445.413 622.909 445.413H648.168C649.048 445.413 649.763 446.128 649.763 447.008C649.763 447.888 649.048 448.603 648.168 448.603Z" fill="#9ABCED"/>
<g opacity="0.600006">
<g opacity="0.600006">
<path opacity="0.600006" d="M913.586 321.608H840.319C837.503 321.608 835.221 319.325 835.221 316.509V223.919C835.221 221.103 837.503 218.82 840.319 218.82H913.586C916.402 218.82 918.686 221.103 918.686 223.919V316.509C918.686 319.325 916.402 321.608 913.586 321.608Z" fill="#9ABCED"/>
</g>
</g>
<path d="M846.762 214.037C844.542 214.037 842.735 215.844 842.735 218.064V310.653C842.735 312.872 844.542 314.679 846.762 314.679H920.028C922.248 314.679 924.054 312.872 924.054 310.653V218.064C924.054 215.844 922.248 214.037 920.028 214.037H846.762ZM920.028 316.825H846.762C843.358 316.825 840.588 314.057 840.588 310.653V218.064C840.588 214.659 843.358 211.891 846.762 211.891H920.028C923.431 211.891 926.2 214.659 926.2 218.064V310.653C926.2 314.057 923.431 316.825 920.028 316.825Z" fill="#4F7EB7"/>
<g opacity="0.5">
<g opacity="0.5">
<path opacity="0.5" d="M870.961 246.284C870.961 253.399 865.194 259.165 858.08 259.165C850.965 259.165 845.197 253.399 845.197 246.284C845.197 239.169 850.965 233.401 858.08 233.401C865.194 233.401 870.961 239.169 870.961 246.284Z" fill="#7CA6D8"/>
</g>
<g opacity="0.5">
<g opacity="0.5">
<g opacity="0.5">
<g opacity="0.5">
<path opacity="0.5" d="M861.478 244.584L870.066 229.287C877.939 231.255 881.696 238.68 877.939 246.284L861.478 244.584Z" fill="#E83F54"/>
</g>
</g>
</g>
</g>
<g opacity="0.5">
<path opacity="0.5" d="M853.427 273.121C853.427 275.197 851.744 276.878 849.67 276.878C847.595 276.878 845.912 275.197 845.912 273.121C845.912 271.046 847.595 269.364 849.67 269.364C851.744 269.364 853.427 271.046 853.427 273.121Z" fill="#9ABCED"/>
</g>
<g opacity="0.5">
<path opacity="0.5" d="M853.427 289.76C853.427 291.836 851.744 293.518 849.67 293.518C847.595 293.518 845.912 291.836 845.912 289.76C845.912 287.686 847.595 286.003 849.67 286.003C851.744 286.003 853.427 287.686 853.427 289.76Z" fill="#9ABCED"/>
</g>
<g opacity="0.5">
<path opacity="0.5" d="M902.45 276.878H872.392C870.317 276.878 868.636 275.197 868.636 273.121C868.636 271.046 870.317 269.364 872.392 269.364H902.45C904.526 269.364 906.208 271.046 906.208 273.121C906.208 275.197 904.526 276.878 902.45 276.878Z" fill="#9ABCED"/>
</g>
<g opacity="0.5">
<path opacity="0.5" d="M902.45 293.518H872.392C870.317 293.518 868.636 291.836 868.636 289.761C868.636 287.685 870.317 286.004 872.392 286.004H902.45C904.526 286.004 906.208 287.685 906.208 289.761C906.208 291.836 904.526 293.518 902.45 293.518Z" fill="#9ABCED"/>
</g>
<g opacity="0.5">
<path opacity="0.5" d="M853.427 306.669C853.427 308.743 851.744 310.426 849.67 310.426C847.595 310.426 845.912 308.743 845.912 306.669C845.912 304.593 847.595 302.911 849.67 302.911C851.744 302.911 853.427 304.593 853.427 306.669Z" fill="#9ABCED"/>
</g>
<g opacity="0.5">
<path opacity="0.5" d="M902.45 310.426H872.392C870.317 310.426 868.636 308.743 868.636 306.668C868.636 304.592 870.317 302.911 872.392 302.911H902.45C904.526 302.911 906.208 304.592 906.208 306.668C906.208 308.743 904.526 310.426 902.45 310.426Z" fill="#9ABCED"/>
</g>
</g>
<g opacity="0.600006">
<g opacity="0.600006">
<path opacity="0.600006" d="M286.941 291.445H213.674C210.857 291.445 208.575 289.163 208.575 286.345V176.58C208.575 173.764 210.857 171.48 213.674 171.48H286.941C289.757 171.48 292.039 173.764 292.039 176.58V286.345C292.039 289.163 289.757 291.445 286.941 291.445Z" fill="#9ABCED"/>
</g>
</g>
<path d="M209.022 167.902C206.802 167.902 204.997 169.709 204.997 171.929V281.694C204.997 283.914 206.802 285.72 209.022 285.72H282.289C284.509 285.72 286.314 283.914 286.314 281.694V171.929C286.314 169.709 284.509 167.902 282.289 167.902H209.022ZM282.289 287.868H209.022C205.618 287.868 202.85 285.098 202.85 281.694V171.929C202.85 168.524 205.618 165.756 209.022 165.756H282.289C285.693 165.756 288.462 168.524 288.462 171.929V281.694C288.462 285.098 285.693 287.868 282.289 287.868" fill="#4F7EB7"/>
<path d="M246.377 220.858L245.329 221.788C244.664 222.379 243.646 222.319 243.056 221.654L232.306 209.551L235.762 206.482L246.512 218.584C247.102 219.25 247.042 220.267 246.377 220.858Z" fill="#7CA6D8"/>
<path d="M228.564 208.074C223.929 208.074 220.149 204.315 220.149 199.66C220.149 195.006 223.929 191.247 228.564 191.247C233.217 191.247 236.977 195.006 236.977 199.66C236.977 204.315 233.217 208.074 228.564 208.074ZM228.564 187.315C221.757 187.315 216.219 192.832 216.219 199.66C216.219 206.488 221.757 212.006 228.564 212.006C235.392 212.006 240.909 206.488 240.909 199.66C240.909 192.832 235.392 187.315 228.564 187.315Z" fill="#7CA6D8"/>
<path d="M278.578 194.114H259.077C257.841 194.114 256.839 193.113 256.839 191.877C256.839 190.642 257.841 189.641 259.077 189.641H278.578C279.813 189.641 280.814 190.642 280.814 191.877C280.814 193.113 279.813 194.114 278.578 194.114Z" fill="#9ABCED"/>
<path d="M278.578 205.744H259.077C257.841 205.744 256.839 204.742 256.839 203.508C256.839 202.272 257.841 201.27 259.077 201.27H278.578C279.813 201.27 280.814 202.272 280.814 203.508C280.814 204.742 279.813 205.744 278.578 205.744Z" fill="#9ABCED"/>
<path d="M278.578 216.479H259.077C257.841 216.479 256.839 215.477 256.839 214.243C256.839 213.007 257.841 212.005 259.077 212.005H278.578C279.813 212.005 280.814 213.007 280.814 214.243C280.814 215.477 279.813 216.479 278.578 216.479Z" fill="#9ABCED"/>
<path d="M254.29 246.358H224.232C222.824 246.358 221.682 245.216 221.682 243.808C221.682 242.4 222.824 241.259 224.232 241.259H254.29C255.698 241.259 256.84 242.4 256.84 243.808C256.84 245.216 255.698 246.358 254.29 246.358Z" fill="#9ABCED"/>
<path d="M254.29 262.326H224.232C222.824 262.326 221.682 261.185 221.682 259.777C221.682 258.369 222.824 257.228 224.232 257.228H254.29C255.698 257.228 256.84 258.369 256.84 259.777C256.84 261.185 255.698 262.326 254.29 262.326Z" fill="#9ABCED"/>
<path d="M254.29 278.295H224.232C222.824 278.295 221.682 277.154 221.682 275.744C221.682 274.338 222.824 273.195 224.232 273.195H254.29C255.698 273.195 256.84 274.338 256.84 275.744C256.84 277.154 255.698 278.295 254.29 278.295Z" fill="#9ABCED"/>
<path d="M277.84 243.808C277.84 246.068 276.008 247.901 273.748 247.901C271.487 247.901 269.655 246.068 269.655 243.808C269.655 241.548 271.487 239.716 273.748 239.716C276.008 239.716 277.84 241.548 277.84 243.808Z" fill="#9ABCED"/>
<path d="M277.84 259.777C277.84 262.037 276.008 263.869 273.748 263.869C271.487 263.869 269.655 262.037 269.655 259.777C269.655 257.517 271.487 255.683 273.748 255.683C276.008 255.683 277.84 257.517 277.84 259.777Z" fill="#9ABCED"/>
<path d="M277.84 275.745C277.84 278.005 276.008 279.838 273.748 279.838C271.487 279.838 269.655 278.005 269.655 275.745C269.655 273.485 271.487 271.653 273.748 271.653C276.008 271.653 277.84 273.485 277.84 275.745Z" fill="#9ABCED"/>
<g opacity="0.600006">
<g opacity="0.600006">
<path opacity="0.600006" d="M644.932 293.123H510.743C505.851 293.123 501.887 289.157 501.887 284.267V195.165C501.887 190.273 505.851 186.309 510.743 186.309H644.932C649.823 186.309 653.788 190.273 653.788 195.165V284.267C653.788 289.157 649.823 293.123 644.932 293.123Z" fill="#9ABCED"/>
</g>
</g>
<path d="M515.396 182.462C511.104 182.462 507.612 185.953 507.612 190.245V279.346C507.612 283.638 511.104 287.129 515.396 287.129H649.585C653.876 287.129 657.368 283.638 657.368 279.346V190.245C657.368 185.953 653.876 182.462 649.585 182.462H515.396ZM649.585 289.276H515.396C509.921 289.276 505.467 284.822 505.467 279.346V190.245C505.467 184.769 509.921 180.316 515.396 180.316H649.585C655.059 180.316 659.515 184.769 659.515 190.245V279.346C659.515 284.822 655.059 289.276 649.585 289.276Z" fill="#4F7EB7"/>
<g opacity="0.5">
<g opacity="0.5">
<path opacity="0.5" d="M595.283 208.047H520.941C518.793 208.047 517.051 206.304 517.051 204.156C517.051 202.007 518.793 200.264 520.941 200.264H595.283C597.431 200.264 599.173 202.007 599.173 204.156C599.173 206.304 597.431 208.047 595.283 208.047Z" fill="#9ABCED"/>
</g>
</g>
<g opacity="0.710007">
<g opacity="0.710007">
<path opacity="0.710007" d="M596.423 265.211H519.801C518.282 265.211 517.051 263.98 517.051 262.46V224.486C517.051 222.966 518.282 221.735 519.801 221.735H596.423C597.942 221.735 599.174 222.966 599.174 224.486V262.46C599.174 263.98 597.942 265.211 596.423 265.211Z" fill="#7CA6D8"/>
</g>
</g>
<g opacity="0.5">
<g opacity="0.5">
<path opacity="0.5" d="M634.733 208.047H612.726C610.577 208.047 608.834 206.304 608.834 204.156C608.834 202.007 610.577 200.264 612.726 200.264H634.733C636.882 200.264 638.625 202.007 638.625 204.156C638.625 206.304 636.882 208.047 634.733 208.047Z" fill="#9ABCED"/>
</g>
</g>
<g opacity="0.5">
<g opacity="0.5">
<path opacity="0.5" d="M636.21 228.712H613.084C611.75 228.712 610.67 227.631 610.67 226.296C610.67 224.963 611.75 223.88 613.084 223.88H636.21C637.543 223.88 638.626 224.963 638.626 226.296C638.626 227.631 637.543 228.712 636.21 228.712Z" fill="#9ABCED"/>
</g>
</g>
<g opacity="0.5">
<g opacity="0.5">
<path opacity="0.5" d="M636.21 239.626H613.084C611.75 239.626 610.67 238.544 610.67 237.21C610.67 235.876 611.75 234.795 613.084 234.795H636.21C637.543 234.795 638.626 235.876 638.626 237.21C638.626 238.544 637.543 239.626 636.21 239.626Z" fill="#9ABCED"/>
</g>
</g>
<g opacity="0.5">
<g opacity="0.5">
<path opacity="0.5" d="M636.21 250.54H613.084C611.75 250.54 610.67 249.458 610.67 248.124C610.67 246.79 611.75 245.709 613.084 245.709H636.21C637.543 245.709 638.626 246.79 638.626 248.124C638.626 249.458 637.543 250.54 636.21 250.54Z" fill="#9ABCED"/>
</g>
</g>
<g opacity="0.5">
<g opacity="0.5">
<path opacity="0.5" d="M636.21 261.454H613.084C611.75 261.454 610.67 260.373 610.67 259.038C610.67 257.705 611.75 256.623 613.084 256.623H636.21C637.543 256.623 638.626 257.705 638.626 259.038C638.626 260.373 637.543 261.454 636.21 261.454Z" fill="#9ABCED"/>
</g>
</g>
<g opacity="0.5">
<g opacity="0.5">
<path opacity="0.5" d="M620.509 282.208H534.897C533.118 282.208 531.677 280.766 531.677 278.987C531.677 277.208 533.118 275.767 534.897 275.767H620.509C622.288 275.767 623.73 277.208 623.73 278.987C623.73 280.766 622.288 282.208 620.509 282.208Z" fill="#9ABCED"/>
</g>
</g>
<g opacity="0.600006">
<g opacity="0.600006">
<path opacity="0.600006" d="M214.271 402.435H87.2394C83.2874 402.435 80.0834 399.231 80.0834 395.278V318.343C80.0834 314.391 83.2874 311.186 87.2394 311.186H214.271C218.223 311.186 221.429 314.391 221.429 318.343V395.278C221.429 399.231 218.223 402.435 214.271 402.435Z" fill="#9ABCED"/>
</g>
</g>
<path d="M82.0293 306.981C78.6746 306.981 75.9466 309.71 75.9466 313.063V389.999C75.9466 393.353 78.6746 396.081 82.0293 396.081H209.061C212.416 396.081 215.144 393.353 215.144 389.999V313.063C215.144 309.71 212.416 306.981 209.061 306.981H82.0293ZM209.061 398.229H82.0293C77.492 398.229 73.7986 394.535 73.7986 389.999V313.063C73.7986 308.525 77.492 304.834 82.0293 304.834H209.061C213.599 304.834 217.292 308.525 217.292 313.063V389.999C217.292 394.535 213.599 398.229 209.061 398.229Z" fill="#4F7EB7"/>
<g opacity="0.5">
<g opacity="0.5">
<path opacity="0.5" d="M130.948 353.311C127.663 356.617 123.112 358.657 118.065 358.657C108.017 358.657 99.8585 350.498 99.8585 340.45C99.8585 330.381 108.017 322.222 118.065 322.222C120.105 322.222 122.081 322.565 123.905 323.189L118.065 340.45L130.948 353.311Z" fill="#7CA6D8"/>
</g>
<g opacity="0.5">
<g opacity="0.5">
<g opacity="0.5">
<g opacity="0.5">
<path opacity="0.5" d="M138.687 339.044C138.687 343.311 136.955 347.178 134.147 349.966L123.207 339.044L128.167 324.386C134.275 326.446 138.687 332.226 138.687 339.044Z" fill="#E83F54"/>
</g>
</g>
</g>
</g>
<g opacity="0.5">
<path opacity="0.5" d="M200.225 359.731H158.358V324.385C158.358 323.792 158.838 323.312 159.431 323.312C160.025 323.312 160.505 323.792 160.505 324.385V357.584H200.225C200.818 357.584 201.298 358.064 201.298 358.657C201.298 359.252 200.818 359.731 200.225 359.731Z" fill="#9ABCED"/>
</g>
<path opacity="0.5" d="M172.492 341.521H167.125V357.584H172.492V341.521Z" fill="#9ABCED"/>
<g opacity="0.5">
<g opacity="0.5">
<g opacity="0.5">
<path opacity="0.5" d="M183.585 333.372H178.217V357.584H183.585V333.372Z" fill="#E83F54"/>
</g>
</g>
</g>
<path opacity="0.5" d="M194.5 345.477H189.132V357.583H194.5V345.477Z" fill="#9ABCED"/>
<g opacity="0.5">
<path opacity="0.5" d="M126.067 376.133H100.839C99.8017 376.133 98.9604 375.292 98.9604 374.256C98.9604 373.217 99.8017 372.377 100.839 372.377H126.067C127.104 372.377 127.946 373.217 127.946 374.256C127.946 375.292 127.104 376.133 126.067 376.133Z" fill="#9ABCED"/>
</g>
<g opacity="0.5">
<path opacity="0.5" d="M164.53 376.133H139.303C138.265 376.133 137.423 375.292 137.423 374.256C137.423 373.217 138.265 372.377 139.303 372.377H164.53C165.567 372.377 166.409 373.217 166.409 374.256C166.409 375.292 165.567 376.133 164.53 376.133Z" fill="#9ABCED"/>
</g>
<g opacity="0.5">
<path opacity="0.5" d="M200.672 376.133H175.445C174.407 376.133 173.565 375.292 173.565 374.256C173.565 373.217 174.407 372.377 175.445 372.377H200.672C201.709 372.377 202.551 373.217 202.551 374.256C202.551 375.292 201.709 376.133 200.672 376.133Z" fill="#9ABCED"/>
</g>
<g opacity="0.5">
<path opacity="0.5" d="M142.617 389.552H117.39C116.351 389.552 115.51 388.711 115.51 387.674C115.51 386.635 116.351 385.796 117.39 385.796H142.617C143.654 385.796 144.495 386.635 144.495 387.674C144.495 388.711 143.654 389.552 142.617 389.552Z" fill="#9ABCED"/>
</g>
<g opacity="0.5">
<path opacity="0.5" d="M178.758 389.552H153.532C152.493 389.552 151.652 388.711 151.652 387.674C151.652 386.635 152.493 385.796 153.532 385.796H178.758C179.796 385.796 180.637 386.635 180.637 387.674C180.637 388.711 179.796 389.552 178.758 389.552Z" fill="#9ABCED"/>
</g>
</g>
<defs>
<linearGradient id="paint0_linear" x1="496.319" y1="528.709" x2="496.319" y2="399.529" gradientUnits="userSpaceOnUse">
<stop stop-color="#1F3A65"/>
<stop offset="1" stop-color="#294A7A"/>
</linearGradient>
<linearGradient id="paint1_linear" x1="418.385" y1="538.728" x2="418.385" y2="504.001" gradientUnits="userSpaceOnUse">
<stop stop-color="#1F3A65"/>
<stop offset="1" stop-color="#294A7A"/>
</linearGradient>
<linearGradient id="paint2_linear" x1="564.075" y1="538.728" x2="564.075" y2="504.001" gradientUnits="userSpaceOnUse">
<stop stop-color="#1F3A65"/>
<stop offset="1" stop-color="#294A7A"/>
</linearGradient>
<linearGradient id="paint3_linear" x1="522.01" y1="525.677" x2="476.923" y2="454.11" gradientUnits="userSpaceOnUse">
<stop stop-color="#3855E1"/>
<stop offset="1" stop-color="#5C7EF7"/>
</linearGradient>
<linearGradient id="paint4_linear" x1="488.1" y1="350.633" x2="486.659" y2="294.427" gradientUnits="userSpaceOnUse">
<stop stop-color="#3F2323"/>
<stop offset="1" stop-color="#5E3434"/>
</linearGradient>
<linearGradient id="paint5_linear" x1="667.438" y1="519.892" x2="695.349" y2="519.892" gradientUnits="userSpaceOnUse">
<stop stop-color="#1F3A65"/>
<stop offset="1" stop-color="#294A7A"/>
</linearGradient>
<linearGradient id="paint6_linear" x1="707.298" y1="424.024" x2="671.872" y2="494.339" gradientUnits="userSpaceOnUse">
<stop stop-color="#E2E8F7"/>
<stop offset="1" stop-color="white"/>
</linearGradient>
</defs>
</svg>
